<?xml version="1.0" standalone="no"?>
<!DOCTYPE svg PUBLIC "-//W3C//DTD SVG 20010904//EN"
 "http://www.w3.org/TR/2001/REC-SVG-20010904/DTD/svg10.dtd">
<svg version="1.0" xmlns="http://www.w3.org/2000/svg"
 width="229.000000pt" height="229.000000pt" viewBox="0 0 229.000000 229.000000"
 preserveAspectRatio="xMidYMid meet">
<metadata>
Created by potrace 1.14, written by Peter Selinger 2001-2017
</metadata>
<g transform="translate(0.000000,229.000000) scale(0.100000,-0.100000)"
fill="#000000" stroke="none">
<path d="M990 2264 c-36 -7 -91 -23 -123 -35 -52 -20 -58 -24 -55 -48 2 -20 9
-27 31 -29 15 -2 27 -8 27 -13 0 -6 9 -7 20 -4 12 4 20 2 20 -5 0 -17 -31 -24
-52 -11 -25 16 -41 4 -34 -25 5 -17 2 -24 -8 -24 -9 0 -16 19 -20 60 l-7 61
-39 -22 c-29 -17 -40 -30 -45 -56 -6 -32 -9 -35 -35 -30 -20 4 -36 0 -53 -14
-34 -26 -117 -132 -154 -194 l-30 -50 41 -37 c49 -43 43 -57 -14 -34 -23 9
-45 14 -50 11 -28 -18 -80 -255 -80 -366 0 -45 2 -49 18 -40 32 17 62 2 62
-30 0 -31 9 -36 28 -17 16 16 29 1 16 -20 -6 -9 -22 -17 -35 -17 -20 0 -25 6
-27 33 -2 23 -8 32 -21 32 -15 0 -19 -11 -25 -61 -10 -96 33 -245 107 -377
l29 -53 24 26 c13 14 31 25 42 25 22 0 72 -22 72 -32 0 -11 -48 -10 -55 2 -3
5 -12 7 -19 4 -16 -6 -27 -52 -14 -60 5 -3 8 -11 6 -17 -1 -7 6 -30 16 -52 9
-22 27 -69 38 -105 11 -36 22 -67 24 -69 2 -2 10 4 19 13 18 18 65 22 65 6 0
-5 -8 -10 -19 -10 -40 0 -60 -73 -28 -104 14 -14 16 -12 24 22 8 34 12 37 46
40 28 2 37 -1 37 -12 0 -12 -7 -14 -30 -9 -25 4 -30 2 -30 -13 0 -11 -7 -32
-15 -47 -11 -22 -12 -33 -3 -52 15 -33 25 -31 33 5 4 16 11 33 16 36 21 13 21
-7 1 -56 l-21 -50 21 -47 c12 -27 28 -55 37 -63 9 -8 21 -22 26 -31 6 -9 32
-43 58 -76 70 -88 107 -99 107 -32 0 33 15 21 41 -31 l24 -51 125 3 c120 3
129 5 195 37 46 23 92 57 136 100 101 102 147 209 179 419 6 35 21 83 35 108
14 25 25 50 25 57 0 7 22 42 48 78 318 436 208 1073 -232 1354 -157 100 -365
138 -546 99z m298 -10 c239 -49 434 -205 550 -439 146 -294 134 -650 -32 -931
-19 -33 -48 -74 -65 -93 -17 -19 -31 -41 -31 -48 0 -8 -11 -35 -24 -61 -14
-27 -34 -100 -46 -167 -12 -65 -30 -142 -41 -171 -28 -74 -88 -162 -142 -210
-60 -53 -158 -104 -164 -86 -3 6 -21 12 -41 12 -36 0 -36 1 -13 13 31 16 46
40 37 62 -5 14 -14 17 -47 12 l-40 -5 25 22 c15 12 26 31 26 42 0 20 17 44 32
44 4 0 8 -11 8 -24 0 -28 24 -51 45 -42 21 8 19 38 -2 34 -13 -2 -19 5 -21 24
-3 24 0 28 23 28 25 0 27 3 23 30 -4 24 -1 30 14 30 24 0 149 127 197 199 33
50 36 60 36 125 l0 71 -39 3 c-22 2 -56 -3 -75 -12 -49 -21 -122 -39 -129 -31
-3 3 4 8 16 12 30 7 23 27 -11 31 -27 3 -35 16 -18 26 4 3 23 0 40 -7 31 -11
34 -10 57 16 13 15 24 32 24 38 0 19 -27 8 -40 -16 -14 -27 -25 -31 -35 -15
-3 6 -19 10 -35 10 -23 0 -31 -5 -36 -25 -4 -18 -13 -25 -30 -25 -13 0 -24 3
-24 8 0 8 -48 32 -64 32 -12 0 -46 31 -46 42 0 5 48 8 107 6 l108 -3 10 50 c9
39 17 53 38 63 43 21 32 32 -31 32 -46 0 -63 -4 -77 -20 -19 -21 -41 -25 -64
-11 -11 7 -11 13 3 32 21 30 20 39 -2 39 -22 0 -57 36 -67 68 -5 18 -2 22 15
22 19 0 21 5 19 40 -3 43 15 76 27 47 6 -17 34 -24 34 -9 0 5 -6 17 -14 28
-13 17 -18 18 -45 7 -17 -6 -31 -7 -31 -2 0 5 -11 9 -25 9 -16 0 -25 -6 -25
-16 0 -9 6 -14 13 -11 16 5 47 -31 47 -55 0 -23 -12 -23 -27 1 -7 11 -25 26
-40 33 -41 20 -40 43 4 72 21 14 47 39 58 56 11 16 26 30 33 30 7 0 12 13 12
29 0 16 3 37 6 46 5 13 2 16 -12 13 -15 -3 -19 -12 -17 -38 l2 -35 -14 32 c-8
17 -19 34 -25 38 -19 12 -10 35 15 41 29 7 45 31 45 69 0 17 5 25 13 22 6 -2
12 -14 11 -26 -1 -25 9 -27 26 -6 10 12 10 19 2 27 -19 19 -14 38 11 47 20 8
20 10 4 16 -19 8 -47 -10 -47 -31 0 -8 -7 -14 -15 -14 -48 0 42 85 102 96 36
7 93 56 93 80 0 11 -8 14 -32 9 -18 -3 -40 -1 -48 5 -17 12 -7 20 61 51 30 14
38 14 54 3 27 -20 63 -17 75 6 6 11 17 20 26 20 19 0 39 -50 26 -70 -15 -24
-37 -18 -34 9 3 16 -1 22 -10 19 -7 -3 -14 -16 -16 -30 -2 -19 2 -28 17 -33
30 -9 59 3 66 26 10 30 -3 86 -20 93 -9 3 -15 18 -15 35 0 18 -8 35 -20 44
-13 9 -17 20 -13 35 5 19 11 22 42 17 l36 -5 -32 12 c-38 13 -63 5 -70 -21 -4
-15 -11 -17 -36 -12 -20 4 -33 14 -35 25 -5 24 16 37 47 29 17 -4 22 -2 19 8
-6 18 -55 24 -74 8 -15 -12 -19 -56 -6 -75 4 -6 24 -14 46 -17 21 -3 47 -14
57 -23 20 -18 26 -54 9 -54 -5 0 -18 -9 -28 -20 -16 -18 -21 -18 -38 -6 -18
14 -18 15 9 21 42 11 27 30 -26 33 -59 4 -62 22 -4 22 34 1 38 3 24 11 -9 6
-26 7 -37 4 -22 -7 -55 19 -45 35 3 5 -1 10 -9 10 -18 0 -21 -21 -5 -37 17
-17 -7 -53 -34 -53 -13 0 -27 -4 -32 -8 -16 -13 -86 -34 -93 -28 -3 4 0 12 6
18 16 16 15 28 -4 28 -8 0 -20 -13 -25 -30 -6 -16 -13 -30 -15 -30 -12 0 -45
43 -38 50 16 14 99 28 138 23 36 -5 55 5 56 30 0 12 -28 8 -32 -5 -6 -18 -40
0 -36 19 3 14 12 17 41 15 27 -2 39 2 43 13 9 22 -3 30 -21 15 -10 -8 -15 -9
-15 -1 0 15 -36 14 -52 -2 -15 -16 -33 -12 -66 14 l-23 18 38 10 c21 6 46 11
56 11 18 0 24 25 7 35 -26 16 -7 26 36 19 34 -5 48 -3 55 7 6 10 11 6 18 -14
8 -19 17 -27 36 -27 14 0 25 5 25 10 0 6 -6 10 -14 10 -26 0 -27 18 -1 44 24
24 25 24 35 5 6 -10 19 -19 30 -19 17 0 17 2 -6 25 -30 30 -48 32 -67 5 -17
-25 -51 -17 -66 16 -6 13 -15 24 -21 24 -13 0 -13 -27 0 -35 6 -3 10 -13 10
-21 0 -22 -77 -6 -106 22 -17 17 -34 24 -64 24 -22 0 -40 5 -40 10 0 6 9 10
20 10 11 0 20 6 20 14 0 7 6 19 14 25 11 9 15 7 19 -9 3 -11 12 -20 21 -20 9
0 16 -6 16 -13 0 -15 39 -41 48 -32 4 4 -1 12 -11 20 -10 7 -15 19 -11 29 5
12 0 16 -20 16 -14 0 -26 5 -26 10 0 10 20 14 54 10 10 -1 15 3 12 8 -3 6 -31
11 -61 11 -44 0 -57 -4 -65 -20 -12 -22 -30 -25 -30 -5 0 7 -13 19 -30 26 -16
7 -30 16 -30 21 0 14 115 10 198 -7z m-464 -365 c3 -17 6 -75 6 -129 l0 -98
32 -13 c132 -54 213 -279 162 -450 -21 -69 -49 -125 -67 -132 -8 -3 -32 1 -53
8 -72 26 -74 24 -74 -62 0 -84 -7 -123 -21 -123 -5 0 -9 45 -9 100 0 99 0 100
-24 100 -23 0 -24 -3 -19 -35 4 -27 2 -35 -10 -35 -9 0 -18 12 -22 30 -11 50
-25 34 -25 -30 0 -45 -3 -60 -14 -60 -20 0 -29 34 -21 76 3 21 2 34 -5 34 -5
0 -10 -11 -10 -25 0 -14 -4 -25 -10 -25 -5 0 -10 9 -10 20 0 11 -5 17 -12 15
-7 -3 -18 -1 -24 3 -16 10 -44 68 -44 91 0 10 -5 21 -11 23 -14 5 -28 77 -29
143 0 59 23 158 39 163 6 2 11 15 11 28 0 15 6 24 15 24 8 0 15 7 15 15 0 24
20 60 39 70 10 6 33 18 51 28 17 10 50 22 73 25 l42 8 3 122 c3 118 13 155 26
91z m-127 -1082 c7 -15 17 -27 22 -27 5 0 17 -23 27 -52 l17 -52 18 23 c11 13
19 29 19 37 0 8 4 14 9 14 8 0 22 -59 36 -151 3 -19 11 -44 19 -54 12 -17 15
-14 26 40 6 33 17 71 23 85 10 23 11 22 18 -25 5 -27 6 -58 3 -67 -3 -9 3 -32
12 -50 16 -28 19 -30 22 -13 3 11 13 31 23 44 11 13 19 30 19 37 0 8 6 14 14
14 16 0 26 -30 26 -79 0 -32 23 -71 42 -71 4 0 8 7 8 16 0 8 8 39 17 67 17 51
18 51 24 22 11 -49 10 -93 -3 -136 -16 -49 -49 -52 -59 -4 l-6 30 -11 -28 c-7
-16 -12 -36 -12 -45 0 -15 -2 -15 -10 -2 -5 8 -10 32 -10 52 0 47 -14 56 -30
19 -6 -16 -20 -37 -31 -47 -10 -9 -19 -28 -19 -41 0 -12 -5 -23 -11 -23 -8 0
-10 14 -6 39 4 33 -14 136 -27 148 -2 3 -7 -9 -11 -26 -3 -16 -12 -35 -20 -41
-11 -9 -16 -4 -24 27 -6 21 -11 45 -11 53 -1 11 -4 10 -15 -4 -14 -19 -15 -18
-17 10 -1 16 0 50 1 77 3 51 -9 61 -27 22 -6 -14 -15 -25 -20 -25 -17 0 -40
35 -47 70 -6 32 -32 99 -56 142 -5 10 -9 22 -9 28 0 15 33 -22 47 -53z m881
-134 c5 -52 -15 -105 -58 -153 l-40 -45 2 103 c3 90 6 106 23 118 11 8 31 14
45 12 20 -2 26 -9 28 -35z m-195 -52 c-31 -41 -53 -40 -53 3 0 32 3 35 33 38
40 4 45 -7 20 -41z m-93 -82 c0 -63 -4 -108 -9 -105 -14 9 -41 -4 -41 -20 0
-8 -9 -14 -20 -14 -11 0 -20 -7 -20 -15 0 -8 -7 -15 -15 -15 -10 0 -15 10 -15
34 0 28 4 35 23 38 14 2 23 11 25 24 2 17 8 21 25 17 17 -5 19 -3 11 6 -18 19
-59 10 -59 -13 0 -11 -6 -21 -12 -23 -9 -3 -13 10 -13 46 0 30 5 51 11 51 11
0 39 24 39 34 0 12 -38 6 -43 -6 -3 -7 -6 1 -6 19 -1 29 2 33 42 41 82 19 77
25 77 -99z m170 7 l0 -103 -50 -47 c-27 -25 -53 -46 -59 -46 -5 0 -16 -3 -25
-6 -23 -9 -22 54 2 72 16 13 16 13 0 14 -15 0 -18 10 -18 70 0 69 0 70 24 64
14 -3 29 0 39 10 29 30 47 13 47 -44 0 -32 -11 -43 -34 -34 -20 8 -21 24 -1
24 8 0 15 5 15 10 0 6 -11 10 -25 10 -19 0 -25 -5 -25 -23 0 -44 53 -65 80
-32 15 18 8 117 -8 123 -17 5 -1 42 19 42 17 0 19 -9 19 -104z m-170 -157 c0
-11 -7 -31 -16 -44 -13 -20 -25 -25 -60 -25 -31 0 -44 4 -44 14 0 9 7 12 21 9
15 -4 22 0 26 16 3 12 13 21 24 21 12 0 19 7 19 20 0 13 5 18 15 14 8 -4 15
-15 15 -25z m-140 -40 c0 -15 -5 -20 -22 -17 -34 5 -37 38 -4 38 20 0 26 -5
26 -21z m180 -44 c0 -8 -6 -15 -14 -15 -8 0 -21 -3 -30 -6 -25 -9 -19 12 7 24
31 15 37 14 37 -3z m-80 -24 c0 -10 -7 -21 -15 -25 -8 -3 -15 -15 -15 -27 0
-28 -27 -59 -52 -59 -10 0 -18 -4 -18 -10 0 -5 -18 0 -40 11 -45 23 -49 33
-21 49 15 8 22 7 28 -4 4 -7 19 -16 33 -20 23 -6 23 -6 8 7 -26 21 -22 27 18
27 35 0 36 1 32 35 -4 31 -1 35 19 35 16 0 23 -6 23 -19z"/>
<path d="M1464 1651 c-152 -69 -226 -303 -155 -491 13 -34 17 -56 11 -60 -15
-9 47 -61 103 -87 64 -31 184 -32 243 -4 43 21 106 79 99 91 -2 4 5 31 16 61
56 147 22 335 -78 435 -45 45 -106 74 -158 74 -22 0 -58 -9 -81 -19z m113
-277 c-3 -3 -12 -4 -19 -1 -8 3 -5 6 6 6 11 1 17 -2 13 -5z m-54 -39 c-3 -9
-8 -14 -10 -11 -3 3 -2 9 2 15 9 16 15 13 8 -4z m47 -15 c0 -5 -4 -10 -10 -10
-5 0 -10 5 -10 10 0 6 5 10 10 10 6 0 10 -4 10 -10z"/>
</g>
</svg>
