<?xml version="1.0" standalone="no"?>
<!DOCTYPE svg PUBLIC "-//W3C//DTD SVG 20010904//EN"
 "http://www.w3.org/TR/2001/REC-SVG-20010904/DTD/svg10.dtd">
<svg version="1.0" xmlns="http://www.w3.org/2000/svg"
 width="1900.000000pt" height="1900.000000pt" viewBox="0 0 1900.000000 1900.000000"
 preserveAspectRatio="xMidYMid meet">
<metadata>
Created by potrace 1.14, written by Peter Selinger 2001-2017
</metadata>
<g transform="translate(0.000000,1900.000000) scale(0.100000,-0.100000)"
fill="#000000" stroke="none">
<path d="M8958 18565 c-2 -1 -55 -5 -119 -9 -219 -11 -414 -44 -764 -127 -503
-120 -852 -233 -1087 -350 -65 -33 -125 -59 -133 -59 -8 0 -24 9 -35 20 -30
30 -46 25 -69 -24 -27 -54 -29 -56 -176 -146 -446 -274 -776 -517 -1102 -813
-214 -194 -277 -271 -434 -530 -29 -49 -64 -97 -77 -108 -21 -16 -27 -17 -51
-5 -35 19 -108 98 -149 163 -19 29 -53 107 -77 174 -47 131 -55 145 -80 135
-14 -5 -16 -16 -10 -69 14 -130 54 -276 116 -424 22 -51 39 -96 39 -100 -1 -4
-20 -22 -43 -40 -23 -17 -89 -70 -147 -118 -181 -148 -216 -174 -301 -216
l-83 -41 -23 28 c-13 16 -58 90 -100 164 -42 74 -105 179 -140 232 -103 157
-107 146 -24 -62 22 -53 131 -267 185 -360 15 -26 26 -61 26 -82 0 -35 -2 -38
-29 -38 -22 0 -38 10 -60 37 -24 29 -31 33 -31 19 0 -30 47 -83 82 -94 18 -6
74 -13 123 -17 147 -11 176 -22 190 -77 9 -36 -32 -79 -217 -228 -222 -180
-399 -290 -463 -290 -9 0 -15 -5 -13 -12 4 -11 33 -19 186 -50 34 -7 62 -16
62 -21 0 -28 -147 -216 -242 -308 -99 -97 -123 -129 -99 -129 20 0 159 101
203 148 26 27 68 84 93 125 44 73 65 98 65 80 0 -5 -14 -53 -30 -106 -41 -130
-143 -362 -178 -406 -16 -20 -64 -60 -108 -90 -230 -157 -353 -245 -393 -280
-40 -36 -43 -42 -37 -74 4 -20 23 -54 45 -78 l38 -44 51 28 c27 15 57 27 66
27 9 0 16 5 16 10 0 6 4 10 9 10 4 0 4 -21 0 -47 -32 -187 -52 -290 -58 -300
-12 -23 -118 -98 -179 -127 -116 -55 -90 -89 66 -84 56 2 102 3 102 2 0 -1
-31 -66 -69 -145 -38 -79 -88 -191 -111 -249 -23 -58 -64 -157 -92 -220 -193
-443 -298 -913 -298 -1337 0 -125 10 -158 33 -106 7 15 25 47 41 71 27 39 61
134 248 681 57 168 134 348 144 338 3 -3 -8 -53 -25 -111 -16 -58 -33 -122
-37 -143 -3 -21 -19 -98 -35 -171 -16 -73 -45 -224 -64 -335 -49 -287 -67
-334 -166 -443 -89 -96 -132 -156 -155 -209 -8 -19 -32 -119 -54 -223 -21
-103 -57 -272 -80 -377 -49 -228 -66 -319 -74 -405 -6 -61 -6 -64 9 -45 39 48
152 246 204 358 77 163 82 174 136 307 68 167 216 442 231 427 2 -2 -16 -123
-40 -268 -72 -426 -82 -558 -68 -904 7 -159 19 -362 27 -450 15 -150 59 -482
72 -532 15 -65 42 6 84 224 18 95 36 170 39 168 4 -3 5 6 3 18 -2 12 0 33 6
47 10 24 10 24 11 -10 0 -19 7 -102 14 -185 8 -82 15 -179 15 -215 1 -72 15
-109 27 -75 37 104 154 315 176 315 16 0 4 -85 -32 -232 -25 -100 -93 -461
-125 -666 -4 -27 -19 -57 -38 -78 -43 -50 -232 -212 -262 -226 -35 -16 -31
-25 14 -33 31 -5 50 -1 92 21 99 50 263 147 379 224 116 77 184 120 191 120 2
0 3 -105 3 -232 -2 -405 16 -529 121 -813 34 -93 70 -195 80 -225 60 -187 147
-400 258 -630 138 -287 194 -439 228 -620 36 -198 41 -205 222 -339 154 -114
181 -126 262 -124 88 2 95 -4 152 -127 25 -52 67 -140 95 -195 73 -144 92
-200 148 -439 65 -275 112 -414 230 -676 69 -154 193 -391 241 -462 34 -51 39
-65 39 -115 0 -32 -14 -123 -30 -202 -17 -79 -30 -158 -30 -174 0 -31 28 -61
985 -1022 580 -582 826 -788 1407 -1176 193 -128 310 -199 420 -253 273 -133
375 -159 693 -177 449 -25 810 19 1106 136 76 30 141 55 143 55 3 0 44 19 93
42 238 113 564 326 788 516 192 163 698 689 979 1017 38 44 80 93 93 109 14
15 39 49 56 75 17 25 39 54 47 63 9 10 25 34 36 55 30 56 48 87 54 93 3 3 11
20 18 37 6 18 18 48 25 65 6 18 14 35 17 38 14 14 30 52 25 60 -3 5 -1 11 4
14 10 7 46 106 43 119 -1 4 2 7 7 7 16 0 39 92 41 163 1 71 8 93 71 225 21 45
39 87 39 92 0 6 9 27 20 47 11 21 20 43 20 50 0 7 9 27 20 45 11 18 20 39 20
46 0 8 6 28 14 45 8 18 26 59 41 92 14 33 35 79 45 103 47 102 59 128 65 149
3 11 12 27 20 33 8 7 15 25 15 41 0 16 4 29 8 29 4 0 14 17 22 37 7 21 20 54
28 73 9 19 17 41 18 47 1 7 14 62 28 122 24 98 28 136 25 206 -2 35 -1 69 5
110 3 22 5 44 5 49 1 5 7 3 15 -3 12 -10 17 -8 25 8 6 11 11 30 11 43 0 28 33
119 178 503 109 288 167 434 182 464 19 37 70 150 70 156 0 4 14 20 31 37 26
27 33 29 52 19 43 -22 123 -41 175 -41 104 0 218 82 264 188 11 26 25 61 33
77 7 17 20 53 30 80 9 28 21 58 26 67 5 10 9 24 9 32 0 7 9 34 20 58 11 25 21
54 23 64 2 10 10 33 19 49 15 29 31 80 32 100 1 6 7 16 14 23 6 7 12 23 12 35
0 12 9 42 20 66 11 24 20 52 20 63 0 11 17 57 39 101 21 45 42 92 45 104 4 11
13 27 21 33 8 7 15 20 15 29 0 10 11 32 25 51 13 18 22 37 19 42 -4 5 3 19 14
31 18 19 40 67 59 132 4 11 13 26 20 34 8 7 17 26 20 42 3 16 9 29 13 29 5 0
11 15 15 33 4 17 14 48 23 67 14 29 17 69 17 235 l0 200 29 0 c21 1 38 12 61
38 39 45 48 92 49 272 1 93 8 163 25 245 13 63 27 142 31 175 4 33 15 97 25
143 9 46 14 100 11 120 -3 20 -2 30 1 22 8 -17 30 119 42 250 4 47 9 76 10 65
2 -17 4 -16 11 6 15 52 22 238 11 350 -29 311 -47 876 -29 895 4 4 26 -6 49
-22 49 -34 71 -47 124 -74 22 -11 47 -25 55 -30 86 -51 245 -101 447 -139 29
-5 58 -13 65 -17 18 -11 398 -12 391 -1 -3 5 3 6 15 3 15 -5 31 2 56 25 43 37
44 51 10 86 -23 23 -28 24 -38 12 -8 -11 -22 -13 -56 -7 -25 3 -64 7 -86 7
-28 1 -44 6 -48 16 -3 8 -14 15 -24 15 -76 0 -195 115 -293 280 -42 73 -83
155 -77 155 2 0 -7 14 -20 32 -12 17 -22 35 -22 40 0 5 -22 53 -49 106 -94
185 -173 426 -197 597 -2 19 -6 41 -9 48 -7 18 33 15 106 -9 35 -12 75 -23 89
-25 14 -3 40 -9 58 -15 18 -6 56 -15 85 -20 84 -14 221 -44 232 -50 19 -12 62
-18 245 -35 25 -2 106 4 182 13 105 13 135 19 131 30 -3 7 -11 13 -18 13 -13
0 -30 28 -26 43 1 5 -3 6 -9 2 -5 -3 -10 -1 -10 5 0 6 -5 8 -10 5 -6 -3 -13 1
-16 9 -3 9 -10 13 -15 10 -5 -3 -9 0 -9 6 0 6 -4 8 -10 5 -5 -3 -10 -1 -10 6
0 7 -3 10 -6 7 -3 -4 -13 0 -22 8 -9 8 -64 49 -122 92 -58 42 -109 80 -115 84
-5 4 -30 23 -55 42 -25 19 -76 56 -115 82 -77 52 -215 190 -215 214 0 9 -4 20
-9 25 -5 6 -28 46 -51 89 -23 44 -70 119 -105 168 -35 49 -67 98 -71 111 -3
12 -12 29 -19 37 -11 13 -24 41 -81 178 -67 158 -99 227 -172 377 -123 250
-134 278 -138 324 -2 18 -11 42 -21 53 -15 17 -15 21 -3 28 19 12 40 13 40 1
0 -13 91 -53 180 -78 166 -48 230 -63 263 -63 20 0 47 -4 61 -10 46 -17 198
-31 341 -31 134 0 195 9 195 30 0 5 2 16 5 24 8 20 -275 318 -450 472 -240
212 -424 444 -503 634 -25 61 -27 83 -10 110 15 24 -6 102 -33 127 -11 9 -19
25 -19 35 0 10 -9 23 -19 28 -16 9 -13 -1 14 -57 64 -127 47 -117 -53 33 -119
176 -284 371 -254 298 4 -10 20 -40 35 -68 128 -228 205 -371 234 -435 72
-158 111 -223 239 -395 146 -197 224 -277 544 -554 113 -98 213 -187 223 -199
19 -21 19 -21 -19 -28 -21 -4 -103 -4 -183 -1 -207 8 -409 49 -661 133 -162
54 -212 82 -253 140 -57 81 -54 56 20 -166 44 -132 92 -248 145 -353 22 -45
81 -172 130 -282 49 -110 126 -265 172 -345 46 -80 107 -188 136 -240 84 -152
138 -226 214 -297 140 -130 333 -264 532 -370 70 -38 129 -74 131 -80 3 -7
-24 -16 -68 -24 -116 -21 -299 -1 -559 61 -253 59 -316 79 -410 124 -139 68
-172 101 -201 206 -18 66 -33 75 -24 15 4 -27 22 -79 40 -115 18 -37 65 -167
104 -291 123 -395 282 -780 391 -947 110 -171 203 -230 407 -256 75 -10 107
-19 123 -34 l21 -20 -22 -21 c-31 -29 -75 -35 -198 -28 -212 13 -410 58 -596
137 -96 41 -277 136 -360 188 -45 28 -51 30 -62 16 -6 -9 -15 -42 -19 -73 -10
-83 13 -533 37 -706 12 -82 23 -213 25 -290 l5 -140 -21 45 c-12 25 -37 98
-56 163 -56 191 -139 382 -229 527 -12 19 -24 43 -28 53 -3 9 -10 17 -14 17
-4 0 -51 -84 -103 -187 -52 -102 -119 -224 -149 -272 -29 -47 -89 -158 -133
-246 -45 -89 -107 -195 -141 -240 -88 -116 -316 -345 -428 -430 -332 -251
-763 -415 -1092 -416 -102 0 -132 5 -297 45 -275 69 -495 155 -631 247 -203
137 -419 332 -513 463 -36 50 -78 99 -93 110 -16 10 -43 38 -61 62 -168 225
-230 349 -344 684 -86 253 -137 464 -178 730 -33 214 -60 350 -105 535 -15 61
-32 128 -37 149 -7 30 -12 36 -20 25 -7 -10 -7 -7 -3 11 4 14 15 36 25 50 11
14 30 49 44 78 14 28 30 52 36 52 27 0 34 -64 40 -390 7 -329 8 -338 43 -525
41 -213 125 -524 187 -690 48 -128 155 -353 227 -475 28 -47 80 -136 116 -198
79 -136 172 -256 259 -337 67 -63 334 -253 453 -323 138 -81 392 -177 615
-233 254 -63 471 -43 759 70 98 39 214 102 406 218 288 176 398 269 536 455
63 85 146 220 174 283 10 22 40 79 67 126 113 199 253 632 294 910 21 143 14
445 -15 659 -63 471 -200 950 -366 1281 -78 154 -144 247 -272 381 -46 47 -87
98 -93 113 -8 22 -5 48 17 129 l28 101 -1 315 c-1 308 -15 547 -35 624 -6 21
-12 36 -14 34 -2 -2 0 -225 5 -495 6 -271 6 -502 2 -514 -8 -20 -9 -19 -34 13
-14 18 -40 67 -57 108 -17 41 -58 125 -91 185 -33 61 -123 234 -199 385 -76
151 -152 298 -168 325 -16 28 -56 100 -88 160 -32 61 -61 115 -65 120 -4 6
-60 114 -123 240 -114 228 -149 318 -208 545 -48 187 -40 82 10 -132 16 -68
39 -172 51 -233 33 -169 126 -513 226 -835 37 -120 65 -240 56 -240 -2 0 -20
17 -39 38 -20 20 -76 80 -127 132 -50 52 -143 151 -206 220 -186 202 -294 304
-475 449 -71 58 -163 134 -204 170 -111 99 -277 285 -338 379 -30 46 -57 82
-60 79 -3 -3 15 -50 40 -104 45 -98 50 -118 82 -368 15 -109 119 -472 143
-495 11 -12 -12 106 -54 264 -24 94 -42 171 -41 172 1 1 47 -52 102 -117 55
-66 124 -147 153 -182 29 -34 83 -104 119 -154 98 -138 177 -203 247 -203 53
0 170 -79 614 -417 140 -106 213 -175 199 -189 -3 -3 -42 14 -88 37 -124 62
-254 106 -439 149 -91 21 -221 59 -290 84 -224 81 -344 113 -520 141 -52 8
-145 24 -206 36 l-112 22 -12 61 c-32 169 -85 309 -179 471 -84 145 -105 183
-130 246 -12 31 -36 69 -53 85 -16 16 -49 51 -71 78 l-42 49 35 -6 c19 -4 57
-18 83 -32 27 -14 63 -25 80 -25 21 0 47 -12 76 -35 56 -45 76 -49 170 -40
149 14 143 16 169 -35 12 -25 34 -70 47 -100 14 -30 23 -44 21 -30 -6 34 -31
102 -68 180 -16 36 -34 74 -38 86 -5 11 -27 51 -49 88 -42 68 -89 174 -157
351 -51 133 -80 164 -241 250 -207 111 -454 287 -510 364 l-23 30 28 5 c136
25 247 12 581 -68 410 -99 449 -108 473 -104 14 2 -56 29 -172 67 -216 69
-247 81 -500 174 -319 118 -575 229 -863 373 -84 43 -240 104 -263 104 -10 0
-2 -45 19 -102 27 -72 102 -194 218 -353 52 -72 106 -163 155 -265 85 -174
150 -284 206 -349 81 -93 424 -667 416 -693 -2 -6 -24 20 -48 58 -100 156
-161 224 -434 480 -170 160 -263 260 -252 272 3 3 26 -14 51 -37 64 -59 137
-92 178 -80 17 5 35 13 40 18 10 10 -141 249 -192 304 -14 16 -55 46 -91 68
-36 21 -83 52 -105 67 -22 16 -92 63 -155 104 -63 42 -182 128 -264 192 -82
64 -246 187 -365 273 -319 231 -391 284 -391 290 0 7 64 -1 285 -38 302 -49
457 -62 660 -55 301 10 417 45 743 225 182 100 248 131 281 131 45 0 38 17
-11 25 -24 4 -55 13 -69 21 -15 7 -85 33 -157 58 -135 46 -196 74 -247 111
-43 32 -126 76 -434 231 -428 215 -591 307 -591 334 0 13 74 40 189 70 62 17
115 30 117 30 2 0 4 4 4 9 0 14 -257 93 -670 206 -262 72 -397 130 -377 162
21 34 214 104 381 138 22 5 26 9 17 18 -9 9 -88 12 -284 13 -263 2 -300 5
-475 40 -52 11 -26 21 93 38 408 58 727 52 1070 -20 165 -35 201 -36 314 -12
100 22 128 23 481 22 382 0 586 -14 880 -59 90 -14 99 -17 180 -74 47 -33 132
-88 190 -122 241 -143 553 -359 665 -460 78 -71 418 -385 449 -414 6 -6 63
-55 126 -109 63 -54 132 -116 153 -139 l38 -42 -68 -12 c-37 -6 -93 -12 -124
-12 -31 -1 -58 -4 -62 -7 -7 -8 301 -217 568 -385 377 -238 459 -304 733 -589
223 -233 343 -374 420 -493 31 -49 85 -128 119 -175 61 -84 159 -246 216 -354
37 -72 138 -218 150 -218 9 0 -9 28 -26 41 -5 3 -9 10 -9 15 -1 15 -11 39 -19
44 -4 3 -9 12 -11 20 -2 8 -18 37 -35 63 -18 27 -33 57 -33 66 0 9 -7 26 -15
38 -8 12 -61 113 -116 225 -109 216 -133 256 -218 358 -143 170 -650 683 -750
759 -143 108 -277 203 -371 264 -52 34 -144 95 -205 135 -60 39 -126 81 -145
91 -43 23 -96 74 -81 79 5 2 19 -2 30 -7 12 -7 22 -7 26 -2 3 5 25 8 50 6 49
-5 59 3 46 37 -13 34 -143 170 -230 241 -42 34 -139 122 -216 197 -219 211
-315 300 -325 300 -6 0 -10 5 -10 11 0 5 6 7 13 3 6 -4 4 2 -5 13 -10 11 -18
24 -18 29 0 5 -9 15 -21 22 -36 23 -13 25 30 3 22 -12 49 -21 61 -21 11 0 28
-4 38 -9 9 -5 53 -24 97 -41 44 -18 143 -63 220 -101 77 -38 149 -70 159 -71
49 -7 16 28 -106 111 -202 139 -230 159 -266 189 -19 15 -65 48 -103 74 -90
61 -143 101 -147 111 -2 4 -10 7 -17 7 -7 0 -15 4 -17 9 -2 4 -37 31 -78 59
-68 45 -156 88 -260 127 -19 7 -60 23 -90 35 -30 11 -104 31 -165 44 -60 13
-137 31 -170 39 -65 16 -171 39 -195 42 -67 9 -180 28 -205 35 -16 5 -70 11
-120 14 -49 4 -112 9 -140 12 -27 2 -88 8 -135 13 -107 11 -408 11 -520 0
-122 -12 -167 -17 -235 -26 -101 -13 -303 -7 -374 11 -60 16 -165 32 -371 56
-70 8 -473 12 -482 5z m3000 -265 c125 -37 185 -61 372 -154 137 -69 362 -207
390 -241 21 -25 -40 -9 -170 45 -136 57 -180 70 -238 70 -29 0 -45 -5 -48 -15
-9 -23 -24 -18 -94 31 -149 105 -397 267 -442 290 -26 13 -48 26 -48 28 0 8
185 -28 278 -54z m864 -470 c41 -30 44 -40 7 -19 -21 11 -63 49 -54 49 3 0 24
-13 47 -30z m-4022 -1211 c0 -6 -4 -7 -10 -4 -5 3 -10 11 -10 16 0 6 5 7 10 4
6 -3 10 -11 10 -16z m149 -468 c34 -101 78 -215 97 -252 31 -63 37 -69 65 -69
16 0 43 -7 59 -15 l30 -16 0 -127 c0 -167 43 -425 88 -527 36 -82 82 -217 82
-239 0 -9 -8 -16 -20 -16 -16 0 -20 7 -20 31 0 52 -29 148 -69 228 -71 141
-108 245 -150 421 -43 180 -83 322 -106 375 -19 45 -36 95 -47 140 -6 22 -16
54 -24 70 -13 31 -54 166 -54 180 0 19 11 -9 69 -184z m-2653 -321 c-16 -73
-21 -88 -31 -78 -3 3 5 42 17 87 27 97 35 92 14 -9z m2159 -150 c53 -85 110
-174 127 -197 16 -24 27 -47 23 -52 -3 -5 0 -13 6 -17 8 -4 9 -3 5 4 -4 7 -5
12 -3 12 4 0 58 -83 85 -130 l14 -25 -21 25 c-11 14 -21 20 -21 13 0 -7 16
-24 35 -38 30 -24 45 -47 50 -80 6 -32 19 -55 36 -60 22 -7 75 -73 66 -82 -4
-3 0 -18 9 -34 16 -31 27 -39 17 -12 -4 11 -3 14 5 9 7 -4 12 -12 12 -18 0 -6
6 -19 14 -27 8 -9 16 -23 18 -31 2 -8 8 -19 15 -25 18 -15 43 -67 36 -78 -3
-5 -21 14 -40 42 -18 29 -31 57 -27 63 4 6 3 8 -3 5 -14 -9 -77 89 -67 104 4
7 3 9 -4 6 -10 -7 -82 81 -82 101 0 5 -7 13 -16 16 -10 4 -14 14 -11 25 2 10
0 25 -5 32 -8 11 -9 10 -4 -3 10 -33 -12 -19 -47 30 -41 56 -232 374 -288 480
-21 40 -39 81 -39 90 0 20 -8 31 105 -148z m-2198 18 c-3 -7 -5 -2 -5 12 0 14
2 19 5 13 2 -7 2 -19 0 -25z m3383 -139 c136 -78 349 -183 357 -176 1 2 -5 25
-14 52 -20 65 -32 135 -22 135 38 0 393 -522 464 -683 l25 -58 -47 27 c-102
58 -410 277 -583 413 -168 133 -210 162 -335 231 -61 34 -101 63 -103 74 -2
10 -1 43 3 72 l6 54 47 -26 c26 -14 117 -66 202 -115z m-3408 59 c-7 -7 -12
-8 -12 -2 0 14 12 26 19 19 2 -3 -1 -11 -7 -17z m813 -115 c-8 -46 -92 -268
-187 -498 -90 -218 -142 -348 -164 -408 -17 -48 -30 -64 -41 -53 -14 14 38
192 112 380 97 246 243 558 258 549 6 -3 7 -1 3 5 -7 11 9 62 20 62 3 0 3 -17
-1 -37z m4358 -960 c19 -28 29 -49 23 -47 -11 4 -66 88 -66 101 0 9 4 4 43
-54z m-4669 -195 c37 -83 67 -221 67 -300 0 -61 -5 -82 -32 -136 -42 -82 -74
-109 -141 -117 -42 -5 -66 -2 -112 15 l-58 22 6 49 c4 26 25 109 47 185 56
193 136 331 192 334 4 0 19 -24 31 -52z m5970 -162 c64 -64 71 -73 35 -49 -66
47 -150 141 -148 168 0 5 7 -1 16 -15 9 -14 53 -61 97 -104z m-2444 -316 c201
-6 430 -15 510 -21 80 -5 309 -16 510 -24 541 -21 867 -61 1203 -146 157 -39
262 -82 180 -72 -221 24 -419 53 -658 93 -322 54 -485 75 -715 90 -85 6 -207
14 -270 20 -563 47 -1410 65 -1725 37 -77 -7 -141 -10 -143 -5 -2 4 -8 8 -13
8 -6 0 -7 -4 -4 -10 4 -6 -9 -9 -32 -9 -23 1 -29 3 -15 6 33 7 27 23 -10 25
-18 1 -4 4 32 8 112 11 769 11 1150 0z m-1354 -39 c-4 -5 0 -12 6 -14 8 -3 6
-6 -4 -6 -18 -1 -24 10 -11 22 9 10 15 8 9 -2z m-2281 -136 c211 -23 331 -52
455 -110 38 -18 29 -16 -75 15 -515 151 -1080 78 -1540 -200 -369 -223 -693
-585 -903 -1010 -68 -137 -61 -125 -68 -118 -3 4 33 82 80 175 235 465 541
796 931 1008 220 120 369 178 554 215 195 39 367 47 566 25z m24 -115 c160
-13 252 -33 441 -97 176 -59 298 -115 364 -166 62 -48 276 -230 321 -274 95
-92 250 -289 329 -420 89 -149 194 -401 252 -606 93 -331 127 -728 89 -1036
-35 -280 -78 -448 -165 -645 -55 -126 -68 -166 -51 -166 6 0 17 12 23 28 7 15
38 70 69 122 67 114 91 176 130 335 37 151 55 268 70 466 22 289 -11 583 -107
958 -46 179 -296 654 -445 844 -81 103 -232 258 -362 370 -73 63 -143 126
-156 141 -23 24 -23 26 -5 26 35 0 90 -44 258 -205 172 -166 265 -268 356
-393 67 -92 288 -478 325 -568 16 -38 41 -99 56 -135 17 -39 35 -110 44 -170
9 -57 18 -111 20 -119 21 -69 82 -496 91 -632 5 -91 2 -120 -25 -253 -16 -82
-37 -195 -46 -250 -25 -156 -58 -256 -155 -460 -23 -49 -51 -111 -61 -137 -42
-107 -104 -213 -184 -318 -35 -46 -90 -168 -80 -178 9 -10 59 46 94 105 19 32
71 114 115 183 95 146 218 388 264 515 17 50 45 147 61 217 17 70 36 142 44
160 13 32 14 28 20 -79 9 -138 -3 -205 -77 -428 -79 -237 -185 -449 -269 -536
-24 -26 -74 -63 -111 -84 -71 -40 -88 -55 -59 -55 15 0 16 -2 3 -10 -12 -8
-12 -10 5 -10 11 0 35 4 54 10 l34 9 -23 -24 c-25 -27 -75 -52 -197 -100 -98
-39 -163 -84 -223 -157 -24 -29 -71 -81 -104 -115 -55 -58 -61 -77 -18 -53
120 66 341 151 587 225 136 41 175 65 276 170 126 130 129 118 11 -43 -81
-111 -117 -129 -392 -202 -47 -13 -152 -49 -235 -80 -82 -32 -217 -80 -300
-108 -82 -27 -204 -68 -270 -91 -246 -86 -561 -154 -775 -167 -123 -8 -345 9
-480 36 -101 21 -273 70 -266 77 2 3 51 -7 108 -22 263 -67 599 -91 814 -60
156 23 370 88 529 161 71 32 152 54 202 54 67 0 68 20 2 34 -38 7 -42 10 -25
20 10 6 92 60 182 120 182 121 159 97 378 401 82 115 106 158 92 172 -11 11
-66 -49 -166 -182 -170 -226 -235 -287 -447 -418 -236 -145 -478 -241 -733
-290 -146 -27 -407 -29 -575 -4 -304 47 -679 175 -850 292 -105 71 -278 226
-361 323 -82 95 -218 299 -273 411 -285 568 -380 1194 -269 1771 33 176 119
462 148 495 10 11 21 31 25 45 11 41 114 229 171 315 121 182 335 419 470 520
189 143 404 261 589 325 240 83 528 115 824 90z m4776 -24 c253 -18 350 -29
490 -55 l100 -18 -40 -11 c-54 -16 -56 -16 -340 18 -137 16 -320 34 -405 40
-248 17 -1213 31 -2020 29 -410 -1 -752 0 -760 2 -47 11 466 15 1540 14 1004
-2 1253 -5 1435 -19z m-3751 -39 c-4 -12 -55 -47 -68 -47 -17 0 -2 20 27 38
38 24 48 26 41 9z m4771 -19 c-206 -38 -332 -80 -530 -178 -319 -157 -413
-227 -591 -432 -49 -57 -112 -127 -141 -156 l-53 -52 -33 16 c-44 23 -48 33
-29 67 24 41 240 247 290 277 24 14 65 41 92 60 27 19 78 53 115 75 36 22 89
55 118 74 90 59 349 188 429 215 105 36 284 64 398 64 l95 0 -160 -30z m793
-44 c62 -20 111 -38 108 -41 -2 -3 -28 3 -58 11 -29 9 -86 25 -125 37 -40 12
-73 23 -73 25 0 11 45 1 148 -32z m-2271 16 c242 -11 464 -29 679 -56 101 -13
141 -15 174 -6 53 13 52 13 -51 -40 -296 -152 -696 -480 -837 -686 -78 -114
-175 -284 -212 -370 -42 -100 -126 -350 -160 -477 -35 -131 -76 -373 -85 -505
-11 -146 11 -489 44 -705 45 -290 59 -348 168 -680 93 -285 138 -372 283 -555
37 -47 88 -116 113 -155 25 -38 55 -82 66 -97 26 -32 27 -47 4 -25 -48 43
-316 92 -363 67 -19 -10 -21 -17 -15 -48 9 -50 29 -86 60 -106 53 -35 319
-146 488 -205 202 -69 277 -100 277 -112 0 -14 -6 -12 -165 41 -147 50 -322
99 -520 146 -124 30 -292 100 -312 130 -8 13 -21 44 -28 71 -7 26 -25 90 -39
140 -14 51 -49 149 -77 218 -46 112 -60 135 -120 199 -172 185 -535 406 -729
446 -192 40 -383 20 -569 -58 -39 -17 -69 -26 -66 -22 12 19 185 136 241 162
241 113 592 79 837 -82 40 -25 99 -71 132 -102 92 -84 127 -96 165 -56 38 41
18 157 -51 293 -84 164 -86 175 -109 701 -15 341 1 441 105 659 26 55 51 109
56 120 17 37 69 210 91 297 l21 87 -28 62 c-25 57 -27 70 -22 138 8 94 31 164
90 267 25 43 47 87 49 97 2 13 -19 27 -94 61 -114 52 -209 113 -408 261 -125
93 -380 325 -380 346 0 11 53 18 321 39 258 20 330 31 494 75 145 38 160 39
482 25z m2699 -225 c60 -36 134 -85 164 -110 30 -25 81 -66 113 -92 31 -25 57
-50 57 -55 0 -18 -32 -6 -67 25 -38 33 -193 146 -308 224 -62 42 -95 73 -77
73 5 0 59 -29 118 -65z m-5554 -107 c-13 -30 -68 16 -56 47 5 12 11 10 33 -12
15 -16 25 -31 23 -35z m3042 -510 c-4 -7 -32 -51 -63 -98 -89 -137 -147 -264
-202 -435 -72 -230 -103 -311 -114 -305 -6 3 -9 39 -9 80 3 131 83 328 213
524 94 144 169 246 179 246 2 0 0 -6 -4 -12z m-6773 -730 c-44 -218 -59 -333
-67 -498 -13 -295 34 -637 132 -945 102 -319 208 -525 409 -794 114 -152 374
-425 450 -473 597 -376 751 -432 1190 -430 355 1 645 49 1115 184 96 27 222
63 280 78 375 100 523 142 562 159 55 23 92 72 178 236 151 286 206 361 351
477 63 51 203 113 299 134 80 17 247 17 315 -1 28 -7 41 -13 30 -14 -253 -16
-335 -36 -498 -117 -209 -105 -317 -212 -417 -413 -50 -101 -103 -256 -95
-281 6 -20 -28 -32 -335 -120 -80 -23 -201 -59 -270 -80 -69 -21 -161 -48
-205 -60 -44 -12 -100 -28 -125 -35 -25 -8 -94 -25 -155 -40 -60 -14 -146 -34
-190 -45 -310 -74 -797 -120 -1052 -99 -168 13 -280 44 -498 139 -22 9 -67 28
-100 41 -99 39 -252 128 -296 172 -8 7 -21 18 -30 23 -29 17 -222 195 -336
312 -366 372 -548 706 -668 1227 -76 332 -86 769 -24 1115 19 109 70 312 77
305 2 -2 -10 -72 -27 -157z m4184 108 c14 -24 32 -66 40 -93 39 -133 89 -549
68 -575 -6 -7 -14 -28 -18 -47 -11 -52 -20 -23 -40 129 -9 74 -32 226 -51 338
-31 183 -42 292 -29 292 2 0 16 -20 30 -44z m1733 -310 l-41 -84 -57 -6 c-65
-8 -670 9 -840 24 -63 5 -157 12 -208 16 l-93 6 3 31 c2 25 9 32 42 44 66 22
570 47 1068 51 l167 2 -41 -84z m3763 -329 c42 -28 89 -116 89 -169 0 -64 -23
-105 -66 -117 -93 -26 -184 80 -171 197 4 37 12 53 41 79 42 39 61 41 107 10z
m-3474 -254 c-2 -21 -4 -4 -4 37 0 41 2 58 4 38 2 -21 2 -55 0 -75z m-1912
-171 c-11 -71 -17 -40 -8 40 5 51 9 63 11 38 2 -19 1 -54 -3 -78z m1171 -1002
c91 -48 308 -191 399 -263 47 -36 80 -71 98 -106 37 -67 108 -250 172 -441 51
-153 52 -155 97 -186 25 -17 97 -52 159 -78 62 -26 179 -79 262 -117 82 -38
210 -92 285 -120 76 -27 193 -71 262 -96 69 -25 206 -82 305 -126 99 -44 211
-90 249 -103 86 -30 239 -61 336 -69 101 -8 146 -21 197 -56 110 -76 174 -84
336 -43 115 29 396 138 538 209 123 62 319 193 444 297 54 46 147 139 206 207
59 68 134 151 166 183 l59 59 -1 -303 c-1 -346 1 -331 -100 -748 -218 -892
-257 -1050 -294 -1185 -35 -130 -64 -248 -162 -675 -11 -47 -42 -148 -69 -225
-162 -466 -336 -954 -435 -1220 -105 -281 -110 -305 -64 -305 21 0 21 -3 15
-58 -13 -118 -75 -290 -209 -582 -87 -191 -253 -581 -269 -635 -5 -16 -19 -87
-32 -156 -26 -140 -71 -263 -143 -391 -173 -307 -302 -470 -728 -913 -116
-121 -251 -262 -301 -314 -358 -375 -826 -702 -1239 -865 l-80 -32 0 215 c-1
242 -24 428 -91 734 -41 185 -77 292 -184 547 -90 216 -116 294 -126 378 -6
53 -4 61 12 70 11 5 91 12 179 15 172 6 241 20 281 58 30 28 31 69 2 96 -13
12 -51 38 -86 58 -75 44 -94 77 -62 109 18 19 37 22 173 27 92 4 211 16 302
32 263 46 298 58 575 200 118 60 251 127 295 149 44 21 91 45 105 52 31 18 38
55 14 73 -15 11 16 46 302 338 175 180 383 393 461 474 78 81 187 187 242 235
55 48 103 96 106 106 6 20 -28 157 -51 202 -14 27 -18 29 -67 26 l-52 -3 -90
-180 c-102 -202 -182 -329 -311 -490 -145 -181 -498 -547 -619 -642 -93 -73
-162 -110 -509 -272 -49 -23 -162 -64 -250 -91 -190 -59 -278 -91 -366 -136
-77 -37 -90 -40 -150 -31 -32 5 -59 3 -90 -8 -49 -17 -198 -40 -330 -50 -94
-8 -539 39 -724 76 -169 34 -334 95 -313 115 4 4 69 13 144 20 76 6 190 20
253 29 150 22 328 16 500 -20 159 -32 173 -32 165 -2 -22 74 -61 131 -163 239
-128 136 -159 193 -126 230 59 66 160 74 314 24 58 -19 137 -44 175 -56 39
-12 105 -44 147 -71 79 -50 119 -60 160 -38 19 10 18 12 -21 30 -54 24 -53 44
4 114 109 134 186 184 313 205 117 19 148 65 145 220 0 41 -8 109 -18 150 -24
112 -30 237 -15 365 16 138 5 252 -40 429 -29 114 -38 220 -24 273 4 16 18 26
46 33 21 6 46 14 54 17 10 4 14 -3 14 -29 0 -23 22 -77 64 -159 55 -108 65
-136 76 -214 32 -240 52 -333 104 -487 29 -90 66 -203 80 -251 35 -113 65
-150 125 -149 31 1 47 6 57 20 8 11 42 41 76 67 131 97 208 187 233 273 17 56
51 375 60 552 10 209 29 301 57 284 13 -8 55 -105 84 -196 25 -77 51 -108 91
-108 14 0 27 -22 51 -84 32 -82 75 -139 110 -148 33 -9 111 22 174 70 119 90
213 235 263 407 37 127 112 562 124 710 12 165 26 201 146 380 52 77 105 165
119 195 34 74 68 211 64 256 -3 43 -37 73 -83 77 -27 2 -36 -7 -110 -118 -98
-147 -234 -287 -395 -407 -262 -194 -400 -263 -640 -322 -251 -62 -390 -62
-712 0 -144 27 -151 32 -128 75 13 24 77 25 240 4 209 -26 230 -27 236 -11 16
41 -136 403 -233 555 -67 104 -227 295 -360 428 -173 173 -199 214 -117 184
35 -12 36 -12 84 33 58 55 78 60 188 53 72 -4 114 -15 247 -62 195 -70 298
-98 436 -119 58 -9 139 -28 180 -41 41 -13 77 -25 82 -25 18 0 4 22 -27 42
-69 46 -252 177 -287 205 -64 51 -179 157 -179 166 0 12 48 -2 147 -44 104
-44 103 -44 102 -26 0 6 -40 44 -88 83 -66 54 -99 90 -132 143 -164 266 -278
417 -479 636 -46 50 -124 140 -175 200 -106 127 -153 176 -221 230 -130 103
-129 102 -143 320 -12 181 -38 309 -98 475 -82 227 -84 230 -261 392 -101 93
-204 176 -287 232 -133 90 -136 104 -9 36z m-246 -169 c0 -17 -36 -23 -200
-31 -195 -10 -254 -21 -335 -59 -145 -67 -245 -171 -330 -339 -43 -86 -54 -95
-19 -16 88 200 136 253 325 357 95 53 198 77 369 86 80 4 155 9 168 9 12 1 22
-2 22 -7z m348 -127 c139 -30 183 -47 248 -95 42 -31 59 -54 98 -131 69 -138
86 -219 86 -407 0 -197 15 -421 36 -530 26 -144 63 -240 167 -441 112 -219
148 -276 177 -285 16 -5 20 -15 20 -50 0 -78 -44 -245 -64 -245 -2 0 7 32 20
71 13 39 24 77 24 85 0 36 -34 6 -87 -76 -56 -87 -73 -105 -73 -77 0 20 -69
86 -115 110 -60 30 -145 29 -218 -5 -89 -42 -157 -113 -208 -218 -50 -104 -71
-115 -90 -49 -11 35 -10 53 9 132 12 51 22 100 22 110 0 10 -16 52 -35 94 -20
41 -49 115 -65 163 -46 137 -195 737 -234 936 -42 218 -53 318 -62 574 -7 211
1 289 37 334 32 41 117 41 307 0z m-1758 22 c0 -2 -7 -7 -16 -10 -8 -3 -12 -2
-9 4 6 10 25 14 25 6z m6548 -48 c19 -19 14 -30 -8 -18 -11 6 -20 15 -20 20 0
14 14 12 28 -2z m318 -207 c47 -22 96 -85 127 -165 17 -46 18 -66 12 -191 -4
-77 -10 -158 -15 -180 l-8 -40 -1 50 c-2 93 -34 255 -50 255 -4 0 -13 -57 -20
-126 -6 -69 -14 -130 -17 -135 -16 -26 -22 13 -17 110 7 130 3 151 -35 173
-66 39 -150 -19 -314 -219 -82 -100 -98 -101 -98 -7 0 137 127 378 244 465 33
24 50 29 95 29 33 0 73 -8 97 -19z m-441 -55 c19 -14 18 -16 -21 -63 -23 -26
-44 -58 -48 -71 -8 -23 -21 -29 -31 -13 -8 13 30 119 51 142 20 23 25 23 49 5z
m-9596 -55 c-38 -29 -288 -194 -364 -240 l-70 -42 45 47 c45 47 191 160 264
204 44 27 102 49 130 50 16 0 16 -2 -5 -19z m9475 -133 c-13 -23 -37 -48 -46
-48 -11 0 33 59 45 59 5 1 5 -5 1 -11z m-9212 -78 c18 -11 26 -20 17 -20 -15
0 -245 -154 -396 -266 -95 -70 -286 -261 -312 -312 l-19 -37 -10 25 c-24 64
-22 87 6 106 15 10 74 58 130 108 57 50 111 91 120 91 10 0 17 6 17 13 0 6 5
12 10 13 20 2 45 20 40 28 -2 5 3 15 13 22 15 13 16 12 3 -3 -7 -10 -9 -18 -4
-18 13 0 54 45 48 53 -3 4 -2 5 1 3 3 -3 17 8 31 25 14 16 30 29 36 28 7 0 2
-7 -10 -16 -13 -8 -23 -20 -23 -26 0 -6 11 0 25 13 13 12 22 26 20 31 -7 10
195 158 217 159 4 0 22 -9 40 -20z m9710 -14 c15 -21 8 -109 -16 -204 -56
-220 -65 -409 -57 -1092 5 -380 20 -315 -146 -625 -171 -321 -331 -730 -414
-1059 -34 -135 -89 -200 -191 -227 -35 -10 -53 -9 -99 4 -113 33 -229 119
-229 170 0 15 3 27 7 27 4 0 50 -25 102 -55 138 -78 159 -86 207 -74 87 22
118 77 179 314 20 76 38 142 40 145 2 4 9 72 15 152 12 166 28 237 70 323 27
56 147 214 274 363 33 38 63 87 77 125 24 61 24 67 23 417 -1 434 -23 870 -44
870 -20 0 -70 -128 -80 -206 -22 -165 -62 -263 -181 -440 -66 -99 -89 -126
-89 -105 0 13 20 59 38 88 14 23 92 246 112 321 6 23 13 94 15 157 4 128 -9
92 122 330 52 94 154 249 182 276 30 29 66 31 83 5z m-10630 -60 c4 -17 1 -23
-9 -19 -7 3 -13 16 -13 30 0 30 16 22 22 -11z m1423 4 c13 -6 15 -9 5 -9 -8 0
-22 4 -30 9 -18 12 -2 12 25 0z m-263 -97 c65 -43 118 -82 118 -88 0 -12 -311
-245 -359 -270 -32 -16 -35 -16 -60 2 -36 28 -120 139 -128 171 -5 23 1 33 51
78 62 57 235 183 251 184 5 0 62 -35 127 -77z m9589 -270 c-6 -20 -13 -27 -27
-25 -10 2 -21 6 -23 8 -9 9 -2 57 15 91 l18 38 12 -42 c7 -25 9 -54 5 -70z
m-10645 -155 c41 -121 43 -144 5 -62 -32 68 -46 112 -55 164 -9 54 10 15 50
-102z m10612 80 c19 -19 14 -62 -14 -112 -14 -25 -28 -46 -31 -46 -2 0 -2 18
2 39 5 34 4 40 -13 45 -26 9 -34 30 -22 61 7 19 17 25 38 25 15 0 33 -5 40
-12z m-28 -358 c0 -47 -2 -50 -25 -50 -35 0 -61 41 -44 72 22 42 30 48 50 37
15 -7 19 -21 19 -59z m-15 -226 c0 -38 -5 -58 -18 -71 -15 -16 -19 -16 -27 -3
-11 17 -14 173 -3 184 15 15 47 -58 48 -110z m-10429 -1 c-3 -31 -2 -41 3 -28
6 13 8 -2 7 -47 0 -36 -2 -65 -3 -64 -4 4 -33 147 -33 162 0 8 5 12 10 9 6 -3
10 -1 10 4 0 6 3 11 6 11 4 0 4 -21 0 -47z m41 -235 c-3 -7 -5 -2 -5 12 0 14
2 19 5 13 2 -7 2 -19 0 -25z m10 -40 c-3 -8 -6 -5 -6 6 -1 11 2 17 5 13 3 -3
4 -12 1 -19z m5953 -393 c-83 -84 -261 -165 -364 -165 -42 0 -43 2 -16 40 16
22 39 33 118 55 53 15 145 49 202 75 58 26 107 48 110 49 2 1 -20 -24 -50 -54z
m3868 -79 c47 -75 46 -113 -2 -211 -45 -92 -111 -191 -133 -199 -9 -4 -16 -5
-17 -4 -1 2 -18 38 -39 81 -42 88 -44 99 -19 135 10 15 38 63 62 107 52 97 92
155 104 152 4 -1 24 -29 44 -61z m-9824 -232 c11 -29 6 -64 -18 -124 -26 -64
-59 -113 -70 -103 -3 3 -6 -1 -6 -10 0 -9 -4 -17 -10 -17 -18 0 -11 97 11 147
22 53 67 123 79 123 4 0 11 -7 14 -16z m5576 -35 c27 -12 56 -32 65 -45 14
-22 22 -24 91 -24 41 0 84 -5 95 -10 26 -14 64 -92 154 -316 42 -103 96 -233
120 -290 25 -56 45 -110 45 -121 0 -38 -128 -81 -272 -90 -47 -3 -98 -3 -112
1 -15 4 -57 35 -95 70 -121 110 -177 126 -455 126 -199 0 -245 9 -281 52 -50
60 -67 215 -40 382 12 77 15 133 10 188 l-6 78 28 1 c41 2 434 15 526 17 60 2
89 -3 127 -19z m4100 -315 c-22 -198 -28 -227 -57 -268 -66 -92 -119 -98 -160
-16 -28 53 -30 136 -7 186 26 55 84 112 159 158 39 24 71 42 73 41 1 -1 -3
-47 -8 -101z m-6686 -152 c-22 -20 -119 -98 -214 -172 -201 -156 -335 -284
-407 -390 -77 -115 -75 -114 -190 -107 -54 3 -122 12 -150 21 -53 17 -53 17
-53 59 0 67 7 78 88 144 121 99 218 155 508 299 271 134 387 183 434 183 24 0
23 -1 -16 -37z m-1629 -414 c42 -33 109 -144 211 -348 99 -199 272 -617 296
-715 23 -89 0 -224 -39 -239 -42 -17 -94 46 -144 174 -132 338 -308 846 -338
973 -22 92 -32 177 -21 177 4 0 20 -10 35 -22z m6212 -332 c-3 -35 -34 -123
-85 -247 -43 -107 -91 -229 -107 -271 -15 -43 -30 -78 -35 -78 -13 0 -20 119
-10 165 5 24 31 79 57 122 27 43 77 143 112 221 35 78 66 142 69 142 3 0 2
-24 -1 -54z m274 -6 c23 -31 64 -189 80 -307 14 -104 6 -274 -17 -383 -49
-224 -261 -511 -360 -486 -26 7 -54 41 -113 137 l-40 67 19 88 c31 150 79 346
101 414 49 149 197 429 251 475 36 30 54 29 79 -5z m-1142 -146 c46 -59 97
-273 86 -366 -7 -66 -128 -475 -155 -528 -10 -19 -32 -51 -48 -70 l-29 -34
-13 69 c-19 102 -34 142 -121 319 -44 87 -79 172 -79 188 0 15 11 56 25 89 13
34 27 85 31 113 4 29 17 67 31 88 38 56 127 136 159 143 16 4 34 8 39 10 29
10 56 2 74 -21z m-4089 -4 c96 -10 240 -24 320 -30 174 -13 273 -27 320 -46
l34 -15 -29 -18 c-43 -27 -64 -52 -149 -183 -79 -123 -91 -132 -134 -102 -27
19 -89 112 -140 211 -42 82 -58 90 -100 45 -15 -16 -59 -92 -99 -168 -40 -77
-83 -150 -96 -163 l-25 -22 -19 28 c-11 15 -41 70 -68 121 -49 97 -62 106
-101 74 -55 -46 -56 -94 -9 -354 41 -223 73 -359 115 -484 35 -102 36 -120 13
-133 -34 -17 -189 -44 -264 -45 -104 -1 -142 24 -193 126 l-36 73 21 60 c15
42 25 112 35 235 17 217 38 371 65 470 25 93 72 180 98 180 10 0 46 -18 81
-41 34 -22 64 -38 66 -36 3 2 -2 36 -11 76 -18 88 -19 148 -2 154 26 11 138 6
307 -13z m-2193 -55 c12 -14 20 -31 17 -38 -7 -20 -112 -86 -156 -98 -22 -5
-49 -9 -60 -7 -19 3 -18 7 17 48 21 25 49 69 61 98 l24 52 37 -15 c21 -8 48
-27 60 -40z m1468 -37 c3 -51 5 -154 3 -228 l-3 -135 -23 49 c-34 71 -52 164
-58 294 l-4 112 39 0 39 0 7 -92z m4250 63 c53 -25 90 -66 109 -124 20 -59 20
-80 2 -116 -14 -26 -109 -113 -104 -94 1 4 -19 40 -44 78 -61 93 -74 139 -59
202 20 78 31 84 96 54z m974 -78 c16 -56 13 -124 -9 -242 -11 -58 -26 -176
-34 -261 -8 -85 -31 -261 -51 -390 -20 -129 -42 -283 -50 -343 -8 -59 -21
-120 -29 -135 -24 -46 -94 -109 -151 -138 -30 -14 -59 -32 -66 -40 -9 -11 -15
-11 -25 -3 -19 15 -18 26 6 51 18 20 28 58 15 58 -3 0 -17 -12 -30 -26 -28
-30 -30 -28 -15 12 7 16 7 30 2 33 -6 4 -6 32 -1 71 5 35 8 69 6 75 -5 11 -35
-54 -47 -100 -7 -25 -8 -21 -9 25 -2 114 66 576 105 715 24 85 94 237 150 327
14 22 53 90 86 151 64 118 116 197 129 197 5 0 13 -17 18 -37z m-3324 -3 c79
-30 149 -200 189 -455 32 -202 38 -244 30 -225 -3 8 -14 38 -24 65 -90 242
-120 316 -171 420 -57 117 -83 205 -61 205 6 0 23 -5 37 -10z m-507 -97 c-5
-42 -16 -88 -25 -102 -52 -83 -143 -165 -157 -142 -3 4 19 48 49 97 31 49 72
119 93 156 20 37 40 68 43 68 3 0 1 -35 -3 -77z m2578 42 c86 -43 186 -131
213 -188 25 -51 26 -100 6 -197 -8 -39 -20 -135 -25 -213 -31 -423 -59 -626
-126 -905 -38 -162 -44 -177 -73 -179 -11 -1 -35 -13 -53 -26 -61 -46 -94 -56
-248 -77 -85 -11 -96 -3 -103 72 -10 114 11 845 27 958 43 296 120 630 167
721 40 80 105 90 215 34z m-3023 -92 c89 -191 96 -263 53 -522 -43 -253 -55
-351 -66 -536 -12 -206 -27 -326 -46 -373 -13 -32 -14 -33 -42 -18 -75 39
-178 288 -158 385 3 14 13 120 21 236 22 292 43 429 106 663 31 120 76 242 88
242 5 0 24 -35 44 -77z m1811 37 c174 -192 254 -803 173 -1320 -29 -187 -57
-293 -100 -380 -31 -64 -33 -65 -75 -68 -71 -5 -242 60 -280 107 -7 9 -42 60
-79 115 l-67 98 28 197 c89 630 172 1006 266 1191 25 51 68 100 86 100 6 0 28
-18 48 -40z m-1003 -26 c65 -33 118 -97 176 -216 57 -117 87 -204 137 -398 35
-138 146 -690 172 -855 23 -146 17 -305 -11 -305 -16 0 -123 110 -175 179 -50
66 -132 199 -191 308 -24 46 -48 81 -54 80 -11 -4 -13 -8 -104 -177 -56 -105
-119 -190 -141 -190 -28 0 -39 205 -21 395 6 61 15 236 21 390 11 293 19 407
46 640 22 180 24 186 66 178 18 -3 54 -16 79 -29z m1538 -260 c18 -55 52 -301
51 -376 -1 -19 -15 21 -35 97 -18 72 -47 173 -63 225 -16 52 -35 122 -41 155
-7 33 -14 71 -17 85 -8 41 83 -122 105 -186z m-136 79 c26 -49 107 -297 133
-410 47 -201 84 -534 84 -752 0 -150 14 -316 36 -411 5 -23 5 -24 -13 -7 -61
54 -156 322 -213 602 -63 303 -72 394 -77 730 -6 350 -6 349 50 248z m-1966
-135 c36 -39 111 -225 147 -363 20 -79 63 -341 71 -430 3 -38 15 -126 26 -195
12 -69 27 -161 34 -205 7 -44 20 -97 28 -118 15 -35 19 -37 59 -37 l43 0 0
-187 c0 -104 2 -219 5 -258 l5 -70 -55 2 c-30 1 -118 14 -195 28 -164 30 -185
43 -244 143 -57 94 -129 260 -140 318 -9 47 -8 50 22 75 29 25 31 30 40 135 4
60 10 255 12 434 3 333 22 580 49 657 36 99 54 113 93 71z m3057 -428 c1 -135
-5 -177 -24 -165 -11 7 -14 276 -3 340 l7 40 9 -40 c5 -22 10 -101 11 -175z
m-2763 -125 c-12 -182 -18 -242 -25 -234 -2 2 -6 74 -10 159 -5 140 -4 162 16
235 30 107 33 77 19 -160z m3665 -62 c-14 -120 -29 -229 -35 -243 -8 -21 -10
-22 -10 -5 -1 29 62 476 66 471 2 -2 -7 -102 -21 -223z m-1188 -729 c-14 -30
-50 -59 -86 -69 -19 -6 -23 -4 -20 11 3 18 107 98 116 90 2 -3 -2 -17 -10 -32z"/>
<path d="M8810 15101 c0 -5 5 -13 10 -16 6 -3 10 -2 10 4 0 5 -4 13 -10 16 -5
3 -10 2 -10 -4z"/>
<path d="M4790 8765 c-20 -24 -6 -28 15 -5 10 11 13 20 8 20 -6 0 -16 -7 -23
-15z"/>
<path d="M11340 4096 c0 -8 5 -18 10 -21 6 -3 10 3 10 14 0 12 -4 21 -10 21
-5 0 -10 -6 -10 -14z"/>
<path d="M11260 17995 c0 -2 134 -95 298 -205 163 -110 405 -275 537 -366 220
-151 407 -272 668 -430 106 -64 144 -100 412 -392 180 -197 265 -273 495 -445
96 -72 254 -194 350 -271 192 -155 237 -189 385 -293 236 -165 432 -289 442
-279 8 8 17 1 -137 101 -253 165 -455 310 -680 490 -124 99 -292 232 -375 294
-197 150 -520 474 -670 674 -37 50 -114 107 -255 191 -63 38 -225 142 -360
231 -497 329 -656 433 -705 461 -27 15 -86 51 -130 80 -105 67 -265 164 -271
164 -2 0 -4 -2 -4 -5z"/>
<path d="M10170 17845 c0 -17 45 -41 244 -132 203 -92 351 -175 861 -481 248
-149 542 -353 845 -587 96 -74 247 -188 335 -252 88 -65 237 -179 330 -253 94
-75 204 -162 245 -194 73 -56 73 -56 25 -10 -27 26 -149 128 -270 227 -121 99
-256 210 -300 247 -534 450 -755 611 -1230 895 -243 146 -248 149 -390 228
-49 27 -102 58 -116 68 -62 43 -536 259 -570 259 -5 0 -9 -7 -9 -15z"/>
<path d="M13380 16221 c0 -6 40 -53 88 -104 48 -51 147 -157 218 -237 72 -80
209 -229 305 -331 96 -102 215 -230 264 -284 196 -217 403 -441 418 -454 42
-34 7 11 -110 146 -71 80 -163 186 -207 237 -43 50 -135 152 -205 226 -70 74
-214 230 -320 345 -305 330 -451 478 -451 456z"/>
<path d="M2734 11202 c-12 -8 -44 -96 -44 -121 0 -27 51 58 57 95 6 36 5 38
-13 26z"/>
<path d="M13371 4574 c0 -11 3 -14 6 -6 3 7 2 16 -1 19 -3 4 -6 -2 -5 -13z"/>
</g>
</svg>
